<?xml version="1.0" encoding="UTF-8" standalone="no"?>
<!-- Created with Inkscape (http://www.inkscape.org/) -->

<svg
   width="10.539247mm"
   height="10.858951mm"
   viewBox="0 0 10.539247 10.858951"
   version="1.1"
   id="svg1"
   xmlns="http://www.w3.org/2000/svg"
   xmlns:svg="http://www.w3.org/2000/svg">
  <defs
     id="defs1" />
  <g
     id="layer1"
     transform="translate(-40.812836,-79.501479)">
    <path
       d="m 45.8289,87.670498 -0.121267,0.110243 q -0.05512,0.0441 -0.165365,0.15434 -0.110243,0.09922 -0.209462,0.187414 -1.256772,1.168577 -1.885158,1.587501 -0.617362,0.418924 -1.12448,0.418924 -0.661459,0 -1.091408,-0.385851 -0.418924,-0.396875 -0.418924,-1.014237 0,-0.683508 0.584289,-1.256772 0.15434,-0.154341 0.793751,-0.661459 1.003213,-0.782727 1.400088,-1.146529 0.429948,-0.429948 0.793751,-0.859897 -0.451997,-0.981164 -0.903994,-1.785939 -0.297657,-0.474046 -0.540192,-0.881945 -0.374826,-0.529168 -0.71658,-0.881946 -0.33073,-0.352778 -0.683508,-0.584289 -0.429948,-0.253559 -0.429948,-0.474045 0,-0.209462 0.429948,-0.363803 0.429948,-0.15434 1.058335,-0.15434 1.466234,0 2.524568,0.749653 0.286632,0.198438 0.496094,0.363803 0.209462,0.165365 0.518143,0.474046 0.308681,0.297656 0.639411,0.628386 0.881945,-1.146529 1.741842,-1.763891 0.859896,-0.628386 1.53238,-0.628386 0.463021,0 0.881945,0.176389 0.418924,0.165365 0.418924,0.363802 0,0.418924 -0.363802,0.992189 -0.352779,0.573264 -1.168578,1.510331 -0.672483,0.804775 -0.815799,0.981164 -0.132292,0.17639 -0.518143,0.782727 l 2.623787,4.200265 q 0.220486,0.363802 0.220486,0.628386 0,0.451997 -0.71658,0.837848 -0.705556,0.385851 -1.53238,0.385851 -1.499307,0 -2.304082,-1.091407 Q 46.39114,88.739856 45.8289,87.670498 Z"
       id="text1"
       style="font-size:22.5778px;font-family:Forte;-inkscape-font-specification:Forte;stroke-width:0.264583"
       aria-label="x" />
  </g>
</svg>
